<mxfile host="app.diagrams.net" modified="2024-03-02T16:13:33.145Z" agent="Mozilla/5.0 (Windows NT 10.0; Win64; x64; rv:123.0) Gecko/20100101 Firefox/123.0" etag="QJQ7o69GRrWXaoh-SpJw" version="23.1.4" type="device">
  <diagram name="Page-1" id="7A1J7vDZtqjWiA8BdJdm">
    <mxGraphModel dx="778" dy="413" grid="1" gridSize="10" guides="1" tooltips="1" connect="1" arrows="1" fold="1" page="1" pageScale="1" pageWidth="827" pageHeight="1169" math="0" shadow="0">
      <root>
        <mxCell id="0" />
        <mxCell id="1" parent="0" />
        <mxCell id="btNymHs0L_CSrPl62Uwt-24" style="edgeStyle=orthogonalEdgeStyle;rounded=0;orthogonalLoop=1;jettySize=auto;html=1;exitX=1.003;exitY=0.373;exitDx=0;exitDy=0;entryX=0;entryY=0.5;entryDx=0;entryDy=0;endArrow=none;endFill=0;strokeWidth=3;exitPerimeter=0;" edge="1" parent="1" source="btNymHs0L_CSrPl62Uwt-1" target="btNymHs0L_CSrPl62Uwt-3">
          <mxGeometry relative="1" as="geometry">
            <Array as="points">
              <mxPoint x="340" y="130" />
              <mxPoint x="340" y="250" />
            </Array>
          </mxGeometry>
        </mxCell>
        <mxCell id="btNymHs0L_CSrPl62Uwt-25" value="&lt;font style=&quot;font-size: 19px;&quot;&gt;I2C&lt;/font&gt;" style="edgeStyle=orthogonalEdgeStyle;rounded=0;orthogonalLoop=1;jettySize=auto;html=1;exitX=1.01;exitY=0.373;exitDx=0;exitDy=0;entryX=0;entryY=0.5;entryDx=0;entryDy=0;endArrow=none;endFill=0;strokeWidth=3;exitPerimeter=0;" edge="1" parent="1" source="btNymHs0L_CSrPl62Uwt-1" target="btNymHs0L_CSrPl62Uwt-2">
          <mxGeometry x="-0.6138" y="20" relative="1" as="geometry">
            <Array as="points">
              <mxPoint x="240" y="130" />
            </Array>
            <mxPoint as="offset" />
          </mxGeometry>
        </mxCell>
        <mxCell id="btNymHs0L_CSrPl62Uwt-26" value="&lt;font style=&quot;font-size: 19px;&quot;&gt;SPI&lt;/font&gt;" style="edgeStyle=orthogonalEdgeStyle;rounded=0;orthogonalLoop=1;jettySize=auto;html=1;exitX=1;exitY=0.75;exitDx=0;exitDy=0;entryX=0;entryY=0.5;entryDx=0;entryDy=0;endArrow=none;endFill=0;strokeWidth=3;" edge="1" parent="1" source="btNymHs0L_CSrPl62Uwt-1" target="btNymHs0L_CSrPl62Uwt-10">
          <mxGeometry x="-0.8065" y="20" relative="1" as="geometry">
            <Array as="points">
              <mxPoint x="300" y="220" />
              <mxPoint x="300" y="370" />
            </Array>
            <mxPoint as="offset" />
          </mxGeometry>
        </mxCell>
        <mxCell id="btNymHs0L_CSrPl62Uwt-28" value="&lt;font style=&quot;font-size: 19px;&quot; color=&quot;#c32914&quot;&gt;+5V&lt;br&gt;&lt;/font&gt;" style="edgeStyle=orthogonalEdgeStyle;rounded=0;orthogonalLoop=1;jettySize=auto;html=1;exitX=1;exitY=0.25;exitDx=0;exitDy=0;entryX=0;entryY=0.25;entryDx=0;entryDy=0;endArrow=none;endFill=0;strokeWidth=3;strokeColor=#C32914;" edge="1" parent="1" source="btNymHs0L_CSrPl62Uwt-1" target="btNymHs0L_CSrPl62Uwt-3">
          <mxGeometry x="-0.7931" y="20" relative="1" as="geometry">
            <Array as="points">
              <mxPoint x="360" y="100" />
              <mxPoint x="360" y="230" />
            </Array>
            <mxPoint as="offset" />
          </mxGeometry>
        </mxCell>
        <mxCell id="btNymHs0L_CSrPl62Uwt-29" value="&lt;font color=&quot;#ff8000&quot; style=&quot;font-size: 19px;&quot;&gt;+3V3&lt;/font&gt;" style="edgeStyle=orthogonalEdgeStyle;rounded=0;orthogonalLoop=1;jettySize=auto;html=1;exitX=0.99;exitY=0.586;exitDx=0;exitDy=0;entryX=0;entryY=0.25;entryDx=0;entryDy=0;endArrow=none;endFill=0;strokeWidth=3;strokeColor=#FF8000;exitPerimeter=0;" edge="1" parent="1" source="btNymHs0L_CSrPl62Uwt-1" target="btNymHs0L_CSrPl62Uwt-10">
          <mxGeometry x="-0.8112" y="21" relative="1" as="geometry">
            <Array as="points">
              <mxPoint x="320" y="181" />
              <mxPoint x="320" y="350" />
            </Array>
            <mxPoint as="offset" />
          </mxGeometry>
        </mxCell>
        <mxCell id="btNymHs0L_CSrPl62Uwt-1" value="&lt;font style=&quot;font-size: 14px;&quot; color=&quot;#ffffff&quot;&gt;&lt;b&gt;Arduino &lt;br&gt;NANO&lt;/b&gt;&lt;/font&gt;" style="rounded=0;whiteSpace=wrap;html=1;fillColor=#017481;" vertex="1" parent="1">
          <mxGeometry x="120" y="40" width="120" height="240" as="geometry" />
        </mxCell>
        <mxCell id="btNymHs0L_CSrPl62Uwt-2" value="" style="rounded=0;whiteSpace=wrap;html=1;fillColor=#017481;" vertex="1" parent="1">
          <mxGeometry x="400" y="80" width="80" height="100" as="geometry" />
        </mxCell>
        <mxCell id="btNymHs0L_CSrPl62Uwt-3" value="" style="rounded=0;whiteSpace=wrap;html=1;fillColor=#017481;" vertex="1" parent="1">
          <mxGeometry x="400" y="210" width="140" height="80" as="geometry" />
        </mxCell>
        <mxCell id="btNymHs0L_CSrPl62Uwt-4" value="" style="ellipse;whiteSpace=wrap;html=1;aspect=fixed;fillColor=#c0c0c0;" vertex="1" parent="1">
          <mxGeometry x="460" y="215" width="70" height="70" as="geometry" />
        </mxCell>
        <mxCell id="btNymHs0L_CSrPl62Uwt-5" value="" style="whiteSpace=wrap;html=1;aspect=fixed;fillColor=#c0c0c0;" vertex="1" parent="1">
          <mxGeometry x="450" y="100" width="20" height="20" as="geometry" />
        </mxCell>
        <mxCell id="btNymHs0L_CSrPl62Uwt-6" value="" style="whiteSpace=wrap;html=1;aspect=fixed;fillColor=#000000;" vertex="1" parent="1">
          <mxGeometry x="450" y="140" width="20" height="20" as="geometry" />
        </mxCell>
        <mxCell id="btNymHs0L_CSrPl62Uwt-7" value="" style="rounded=0;whiteSpace=wrap;html=1;fillColor=#666666;rotation=-90;" vertex="1" parent="1">
          <mxGeometry x="165" y="240" width="30" height="40" as="geometry" />
        </mxCell>
        <mxCell id="btNymHs0L_CSrPl62Uwt-8" value="" style="rounded=0;whiteSpace=wrap;html=1;fillColor=#666666;" vertex="1" parent="1">
          <mxGeometry x="404" y="220" width="20" height="60" as="geometry" />
        </mxCell>
        <mxCell id="btNymHs0L_CSrPl62Uwt-10" value="" style="rounded=0;whiteSpace=wrap;html=1;fillColor=#017481;" vertex="1" parent="1">
          <mxGeometry x="400" y="330" width="140" height="80" as="geometry" />
        </mxCell>
        <mxCell id="btNymHs0L_CSrPl62Uwt-11" value="" style="rounded=0;whiteSpace=wrap;html=1;fillColor=#666666;" vertex="1" parent="1">
          <mxGeometry x="404" y="340" width="20" height="60" as="geometry" />
        </mxCell>
        <mxCell id="btNymHs0L_CSrPl62Uwt-14" value="" style="whiteSpace=wrap;html=1;aspect=fixed;fillColor=#C32914;" vertex="1" parent="1">
          <mxGeometry x="480" y="345" width="50" height="50" as="geometry" />
        </mxCell>
        <mxCell id="btNymHs0L_CSrPl62Uwt-13" value="" style="whiteSpace=wrap;html=1;aspect=fixed;fillColor=#c0c0c0;" vertex="1" parent="1">
          <mxGeometry x="450" y="340" width="60" height="60" as="geometry" />
        </mxCell>
        <mxCell id="btNymHs0L_CSrPl62Uwt-15" value="&lt;b&gt;&lt;font style=&quot;font-size: 15px;&quot;&gt;AHT21 + ENS160&lt;/font&gt;&lt;/b&gt;" style="text;html=1;align=center;verticalAlign=middle;whiteSpace=wrap;rounded=0;" vertex="1" parent="1">
          <mxGeometry x="490" y="115" width="130" height="30" as="geometry" />
        </mxCell>
        <mxCell id="btNymHs0L_CSrPl62Uwt-16" value="&lt;font style=&quot;font-size: 15px;&quot;&gt;&lt;b&gt;RTC&lt;/b&gt;&lt;/font&gt;" style="text;html=1;align=center;verticalAlign=middle;whiteSpace=wrap;rounded=0;" vertex="1" parent="1">
          <mxGeometry x="550" y="235" width="50" height="30" as="geometry" />
        </mxCell>
        <mxCell id="btNymHs0L_CSrPl62Uwt-17" value="&lt;font style=&quot;font-size: 15px;&quot;&gt;&lt;b&gt;Carte SD&lt;br&gt;&lt;/b&gt;&lt;/font&gt;" style="text;html=1;align=center;verticalAlign=middle;whiteSpace=wrap;rounded=0;" vertex="1" parent="1">
          <mxGeometry x="550" y="355" width="70" height="30" as="geometry" />
        </mxCell>
        <mxCell id="btNymHs0L_CSrPl62Uwt-18" value="" style="rounded=0;whiteSpace=wrap;html=1;fillColor=#666666;" vertex="1" parent="1">
          <mxGeometry x="130" y="90" width="20" height="160" as="geometry" />
        </mxCell>
        <mxCell id="btNymHs0L_CSrPl62Uwt-19" value="" style="rounded=0;whiteSpace=wrap;html=1;fillColor=#666666;" vertex="1" parent="1">
          <mxGeometry x="210" y="90" width="20" height="160" as="geometry" />
        </mxCell>
        <mxCell id="btNymHs0L_CSrPl62Uwt-20" value="" style="whiteSpace=wrap;html=1;aspect=fixed;fillColor=#c0c0c0;" vertex="1" parent="1">
          <mxGeometry x="155" y="20" width="50" height="50" as="geometry" />
        </mxCell>
        <mxCell id="btNymHs0L_CSrPl62Uwt-21" value="" style="rounded=0;whiteSpace=wrap;html=1;fillColor=#666666;" vertex="1" parent="1">
          <mxGeometry x="404" y="92.5" width="20" height="75" as="geometry" />
        </mxCell>
        <mxCell id="btNymHs0L_CSrPl62Uwt-27" style="edgeStyle=orthogonalEdgeStyle;rounded=0;orthogonalLoop=1;jettySize=auto;html=1;exitX=1;exitY=0.25;exitDx=0;exitDy=0;entryX=0.006;entryY=0.203;entryDx=0;entryDy=0;entryPerimeter=0;endArrow=none;endFill=0;strokeWidth=3;strokeColor=#C32914;" edge="1" parent="1" source="btNymHs0L_CSrPl62Uwt-1" target="btNymHs0L_CSrPl62Uwt-2">
          <mxGeometry relative="1" as="geometry" />
        </mxCell>
        <mxCell id="btNymHs0L_CSrPl62Uwt-30" value="&lt;font style=&quot;font-size: 19px;&quot;&gt;I2C : SDA =&amp;gt; A5 | SCL =&amp;gt; A4&lt;/font&gt;" style="text;html=1;align=center;verticalAlign=middle;whiteSpace=wrap;rounded=0;" vertex="1" parent="1">
          <mxGeometry x="80" y="440" width="260" height="30" as="geometry" />
        </mxCell>
        <mxCell id="btNymHs0L_CSrPl62Uwt-31" value="&lt;font style=&quot;font-size: 19px;&quot;&gt;SPI : MOSI =&amp;gt; D11 | MISO =&amp;gt; D12 | CS =&amp;gt; D10 | CLK =&amp;gt;D13&lt;/font&gt;" style="text;html=1;align=center;verticalAlign=middle;whiteSpace=wrap;rounded=0;" vertex="1" parent="1">
          <mxGeometry x="80" y="470" width="530" height="30" as="geometry" />
        </mxCell>
      </root>
    </mxGraphModel>
  </diagram>
</mxfile>
